<svg width="21" height="15" viewBox="0 0 21 15" fill="none" xmlns="http://www.w3.org/2000/svg">
<path d="M10.2382 9.00614C10.0036 9.00654 9.77503 8.9317 9.58618 8.79262L0.683072 2.22288C0.567234 2.13733 0.469394 2.02981 0.395139 1.90647C0.320884 1.78313 0.271667 1.64638 0.250299 1.50404C0.207145 1.21655 0.280045 0.923717 0.452961 0.689945C0.625877 0.456173 0.884646 0.300615 1.17234 0.257493C1.46003 0.21437 1.75309 0.287216 1.98703 0.460004L10.2382 6.54248L18.4893 0.460004C18.6051 0.374448 18.7367 0.312529 18.8765 0.277782C19.0163 0.243035 19.1615 0.236141 19.304 0.257493C19.4464 0.278844 19.5833 0.328025 19.7067 0.402225C19.8301 0.476425 19.9377 0.574193 20.0234 0.689945C20.109 0.805697 20.1709 0.937168 20.2057 1.07685C20.2405 1.21653 20.2474 1.36169 20.226 1.50404C20.2047 1.64638 20.1554 1.78313 20.0812 1.90647C20.0069 2.02981 19.9091 2.13733 19.7932 2.22288L10.8901 8.79262C10.7013 8.9317 10.4728 9.00654 10.2382 9.00614Z" fill="#7AE229"/>
<path d="M10.2382 14.7547C10.0036 14.7551 9.77503 14.6802 9.58618 14.5412L0.683072 7.97142C0.449126 7.79863 0.293454 7.54005 0.250299 7.25257C0.207145 6.96509 0.280045 6.67225 0.452961 6.43848C0.625877 6.20471 0.884646 6.04915 1.17234 6.00603C1.46003 5.96291 1.75309 6.03575 1.98703 6.20854L10.2382 12.291L18.4893 6.20854C18.7232 6.03575 19.0163 5.96291 19.304 6.00603C19.5917 6.04915 19.8504 6.20471 20.0234 6.43848C20.1963 6.67225 20.2692 6.96509 20.226 7.25257C20.1829 7.54005 20.0272 7.79863 19.7932 7.97142L10.8901 14.5412C10.7013 14.6802 10.4728 14.7551 10.2382 14.7547Z" fill="#7AE229"/>
</svg>
