<svg width="21" height="15" viewBox="0 0 21 15" fill="none" xmlns="http://www.w3.org/2000/svg">
<g clip-path="url(#clip0_156_1075)">
<path d="M19.6423 14.755C19.4076 14.7554 19.1791 14.6805 18.9902 14.5414L10.7382 8.45824L2.4861 14.5414C2.37025 14.627 2.23866 14.6889 2.09886 14.7237C1.95906 14.7584 1.81378 14.7653 1.67131 14.7439C1.52884 14.7226 1.39198 14.6734 1.26853 14.5992C1.14509 14.525 1.03748 14.4272 0.951851 14.3114C0.866222 14.1957 0.80425 14.0642 0.769474 13.9245C0.734697 13.7848 0.727797 13.6396 0.749167 13.4973C0.792326 13.2097 0.948017 12.9511 1.18199 12.7783L10.0861 6.20786C10.2748 6.06826 10.5034 5.99292 10.7382 5.99292C10.9729 5.99292 11.2015 6.06826 11.3902 6.20786L20.2943 12.7783C20.4802 12.9153 20.6181 13.1074 20.6883 13.3272C20.7584 13.5471 20.7573 13.7835 20.685 14.0027C20.6127 14.2219 20.4729 14.4126 20.2856 14.5477C20.0984 14.6828 19.8732 14.7554 19.6423 14.755Z" fill="white"/>
<path d="M19.6423 9.00581C19.4077 9.00621 19.1791 8.93136 18.9902 8.79226L10.7382 2.7091L2.48613 8.79226C2.25216 8.96507 1.95907 9.03793 1.67135 8.9948C1.38362 8.95167 1.12482 8.7961 0.951886 8.5623C0.778951 8.3285 0.706043 8.03563 0.749202 7.74811C0.792361 7.4606 0.948052 7.20199 1.18202 7.02919L10.0861 0.45871C10.2748 0.319119 10.5034 0.243774 10.7382 0.243774C10.973 0.243774 11.2015 0.319119 11.3902 0.45871L20.2944 7.02919C20.4803 7.1661 20.6181 7.35822 20.6883 7.5781C20.7585 7.79797 20.7573 8.03438 20.685 8.25356C20.6127 8.47274 20.4729 8.6635 20.2857 8.79859C20.0984 8.93368 19.8733 9.0062 19.6423 9.00581Z" fill="white"/>
</g>
<defs>
<clipPath id="clip0_156_1075">
<rect width="20" height="14.5098" fill="white" transform="translate(0.738129 0.245117)"/>
</clipPath>
</defs>
</svg>
