<svg width="21" height="9" viewBox="0 0 21 9" fill="none" xmlns="http://www.w3.org/2000/svg">
<g clip-path="url(#clip0_156_1126)">
<path d="M19.1423 8.22552H1.33405C1.0434 8.22552 0.764657 8.10922 0.559138 7.90221C0.353619 7.6952 0.238159 7.41443 0.238159 7.12167C0.238159 6.82891 0.353619 6.54814 0.559138 6.34113C0.764657 6.13412 1.0434 6.01782 1.33405 6.01782H19.1423C19.4329 6.01782 19.7117 6.13412 19.9172 6.34113C20.1227 6.54814 20.2382 6.82891 20.2382 7.12167C20.2382 7.41443 20.1227 7.6952 19.9172 7.90221C19.7117 8.10922 19.4329 8.22552 19.1423 8.22552Z" fill="white"/>
<path d="M19.1423 2.98223H1.33405C1.0434 2.98223 0.764657 2.86594 0.559138 2.65892C0.353619 2.45191 0.238159 2.17114 0.238159 1.87839C0.238159 1.58563 0.353619 1.30486 0.559138 1.09785C0.764657 0.890834 1.0434 0.774536 1.33405 0.774536L19.1423 0.774536C19.4329 0.774536 19.7117 0.890834 19.9172 1.09785C20.1227 1.30486 20.2382 1.58563 20.2382 1.87839C20.2382 2.17114 20.1227 2.45191 19.9172 2.65892C19.7117 2.86594 19.4329 2.98223 19.1423 2.98223Z" fill="white"/>
</g>
<defs>
<clipPath id="clip0_156_1126">
<rect width="20" height="7.45098" fill="white" transform="translate(0.238159 0.774536)"/>
</clipPath>
</defs>
</svg>
