<svg width="21" height="15" viewBox="0 0 21 15" fill="none" xmlns="http://www.w3.org/2000/svg">
<path d="M10.7382 9.00614C10.5036 9.00654 10.275 8.9317 10.0862 8.79262L1.18307 2.22288C1.06723 2.13733 0.969394 2.02981 0.895139 1.90647C0.820884 1.78313 0.771667 1.64638 0.750299 1.50404C0.707145 1.21655 0.780045 0.923717 0.952961 0.689945C1.12588 0.456173 1.38465 0.300615 1.67234 0.257493C1.96003 0.21437 2.25309 0.287216 2.48703 0.460004L10.7382 6.54248L18.9893 0.460004C19.1051 0.374448 19.2367 0.312529 19.3765 0.277782C19.5163 0.243035 19.6615 0.236141 19.804 0.257493C19.9464 0.278844 20.0833 0.328025 20.2067 0.402225C20.3301 0.476425 20.4377 0.574193 20.5234 0.689945C20.609 0.805697 20.6709 0.937168 20.7057 1.07685C20.7405 1.21653 20.7474 1.36169 20.726 1.50404C20.7047 1.64638 20.6554 1.78313 20.5812 1.90647C20.5069 2.02981 20.4091 2.13733 20.2932 2.22288L11.3901 8.79262C11.2013 8.9317 10.9728 9.00654 10.7382 9.00614Z" fill="white"/>
<path d="M10.7382 14.7547C10.5036 14.7551 10.275 14.6802 10.0862 14.5412L1.18307 7.97142C0.949126 7.79863 0.793454 7.54005 0.750299 7.25257C0.707145 6.96509 0.780045 6.67225 0.952961 6.43848C1.12588 6.20471 1.38465 6.04915 1.67234 6.00603C1.96003 5.96291 2.25309 6.03575 2.48703 6.20854L10.7382 12.291L18.9893 6.20854C19.2232 6.03575 19.5163 5.96291 19.804 6.00603C20.0917 6.04915 20.3504 6.20471 20.5234 6.43848C20.6963 6.67225 20.7692 6.96509 20.726 7.25257C20.6829 7.54005 20.5272 7.79863 20.2932 7.97142L11.3901 14.5412C11.2013 14.6802 10.9728 14.7551 10.7382 14.7547Z" fill="white"/>
</svg>
