<svg width="25" height="25" viewBox="0 0 25 25" fill="none" xmlns="http://www.w3.org/2000/svg">
<mask id="mask0_69718_5315" style="mask-type:alpha" maskUnits="userSpaceOnUse" x="0" y="0" width="25" height="25">
<rect x="0.5" y="0.5" width="24" height="24" fill="#D9D9D9"/>
</mask>
<g mask="url(#mask0_69718_5315)">
<path d="M5.5 19.5H6.9L15.525 10.875L14.125 9.475L5.5 18.1V19.5ZM19.8 9.425L15.55 5.225L16.95 3.825C17.3333 3.44167 17.8042 3.25 18.3625 3.25C18.9208 3.25 19.3917 3.44167 19.775 3.825L21.175 5.225C21.5583 5.60833 21.7583 6.07083 21.775 6.6125C21.7917 7.15417 21.6083 7.61667 21.225 8L19.8 9.425ZM18.35 10.9L7.75 21.5H3.5V17.25L14.1 6.65L18.35 10.9Z" fill="white"/>
</g>
</svg>
