<svg width="16" height="18" viewBox="0 0 16 18" fill="none" xmlns="http://www.w3.org/2000/svg">
<path d="M3.00098 18C2.45098 18 1.98014 17.8042 1.58848 17.4125C1.19681 17.0208 1.00098 16.55 1.00098 16V3C0.717643 3 0.480143 2.90417 0.288477 2.7125C0.0968099 2.52083 0.000976562 2.28333 0.000976562 2C0.000976562 1.71667 0.0968099 1.47917 0.288477 1.2875C0.480143 1.09583 0.717643 1 1.00098 1H5.00098C5.00098 0.716667 5.09681 0.479167 5.28848 0.2875C5.48014 0.0958333 5.71764 0 6.00098 0H10.001C10.2843 0 10.5218 0.0958333 10.7135 0.2875C10.9051 0.479167 11.001 0.716667 11.001 1H15.001C15.2843 1 15.5218 1.09583 15.7135 1.2875C15.9051 1.47917 16.001 1.71667 16.001 2C16.001 2.28333 15.9051 2.52083 15.7135 2.7125C15.5218 2.90417 15.2843 3 15.001 3V16C15.001 16.55 14.8051 17.0208 14.4135 17.4125C14.0218 17.8042 13.551 18 13.001 18H3.00098ZM3.00098 3V16H13.001V3H3.00098ZM5.00098 13C5.00098 13.2833 5.09681 13.5208 5.28848 13.7125C5.48014 13.9042 5.71764 14 6.00098 14C6.28431 14 6.52181 13.9042 6.71348 13.7125C6.90514 13.5208 7.00098 13.2833 7.00098 13V6C7.00098 5.71667 6.90514 5.47917 6.71348 5.2875C6.52181 5.09583 6.28431 5 6.00098 5C5.71764 5 5.48014 5.09583 5.28848 5.2875C5.09681 5.47917 5.00098 5.71667 5.00098 6V13ZM9.00098 13C9.00098 13.2833 9.09681 13.5208 9.28848 13.7125C9.48014 13.9042 9.71764 14 10.001 14C10.2843 14 10.5218 13.9042 10.7135 13.7125C10.9051 13.5208 11.001 13.2833 11.001 13V6C11.001 5.71667 10.9051 5.47917 10.7135 5.2875C10.5218 5.09583 10.2843 5 10.001 5C9.71764 5 9.48014 5.09583 9.28848 5.2875C9.09681 5.47917 9.00098 5.71667 9.00098 6V13Z" fill="#2A3647"/>
</svg>
