<svg width="436" height="88" viewBox="0 0 436 88" fill="none" xmlns="http://www.w3.org/2000/svg">
<g filter="url(#filter0_d_69360_4712)">
<rect width="428" height="80" transform="translate(4)" fill="white"/>
<path d="M42.927 20.4922H35.8389V28.647H42.927V20.4922Z" fill="#2A3647"/>
<path d="M35.8392 35.2793H42.9273V46.7803C42.9597 49.5478 42.1721 52.2624 40.6646 54.5791C39.1761 56.83 36.3027 59.5081 30.9866 59.5081C25.1961 59.5081 21.8211 56.7698 20 55.2692L24.471 49.7542C26.2484 51.2055 27.9605 52.3994 31.0138 52.3994C33.3256 52.3994 34.2471 51.4574 34.7869 50.6359C35.5207 49.4949 35.9003 48.1604 35.8774 46.8022L35.8392 35.2793Z" fill="#2A3647"/>
<path d="M32.2239 30.1309H25.1357V37.2505H32.2239V30.1309Z" fill="#29ABE2"/>
<path d="M46.6409 56.1675C46.6409 57.6845 45.8721 58.5006 44.798 58.5006C43.7239 58.5006 43.0205 57.5312 43.0205 56.2442C43.0205 54.9571 43.7457 53.9385 44.858 53.9385C45.9703 53.9385 46.6409 54.9407 46.6409 56.1675ZM43.8438 56.2277C43.8438 57.1423 44.2091 57.816 44.8362 57.816C45.4632 57.816 45.8176 57.104 45.8176 56.173C45.8176 55.3569 45.4904 54.5902 44.8362 54.5902C44.1819 54.5902 43.8438 55.3296 43.8438 56.2277Z" fill="#2A3647"/>
<path d="M48.0478 54.0039V58.4291H47.2627V54.0039H48.0478Z" fill="#2A3647"/>
<path d="M48.8975 58.4291V54.0039H49.7698L50.7077 55.8276C50.9491 56.3045 51.1639 56.7945 51.351 57.2954C51.302 56.7477 51.2802 56.1179 51.2802 55.4169V54.0039H51.9999V58.4291H51.1875L50.2387 56.567C49.9876 56.0778 49.7637 55.575 49.5681 55.0609C49.5681 55.6086 49.6063 56.2274 49.6063 56.9887V58.4236L48.8975 58.4291Z" fill="#2A3647"/>
<circle cx="396" cy="40" r="16" fill="white"/>
<circle cx="396" cy="40" r="19" stroke="#2A3647" stroke-width="2"/>
<path d="M391.552 37.8208C391.511 37.417 391.34 37.1033 391.036 36.8797C390.732 36.6562 390.32 36.5444 389.8 36.5444C389.446 36.5444 389.147 36.5944 388.904 36.6945C388.66 36.7913 388.473 36.9265 388.343 37.1C388.216 37.2735 388.153 37.4704 388.153 37.6906C388.146 37.8742 388.185 38.0343 388.268 38.1711C388.355 38.308 388.473 38.4264 388.623 38.5265C388.774 38.6233 388.947 38.7084 389.144 38.7818C389.341 38.8519 389.551 38.9119 389.775 38.962L390.696 39.1822C391.143 39.2823 391.553 39.4158 391.927 39.5827C392.301 39.7495 392.624 39.9547 392.898 40.1983C393.172 40.4419 393.384 40.7289 393.534 41.0593C393.687 41.3896 393.766 41.7684 393.769 42.1955C393.766 42.8228 393.605 43.3668 393.288 43.8273C392.975 44.2844 392.521 44.6398 391.927 44.8934C391.336 45.1437 390.624 45.2688 389.79 45.2688C388.962 45.2688 388.241 45.142 387.627 44.8884C387.017 44.6348 386.539 44.2594 386.196 43.7622C385.855 43.2616 385.677 42.6426 385.66 41.9052H387.757C387.781 42.2489 387.879 42.5359 388.053 42.7661C388.23 42.993 388.465 43.1649 388.759 43.2817C389.055 43.3951 389.391 43.4518 389.765 43.4518C390.132 43.4518 390.45 43.3985 390.721 43.2917C390.994 43.1849 391.206 43.0364 391.356 42.8462C391.506 42.656 391.582 42.4374 391.582 42.1905C391.582 41.9602 391.513 41.7667 391.376 41.6099C391.243 41.453 391.046 41.3195 390.786 41.2094C390.529 41.0993 390.213 40.9992 389.84 40.9091L388.723 40.6288C387.859 40.4186 387.177 40.0899 386.676 39.6427C386.176 39.1956 385.927 38.5933 385.93 37.8358C385.927 37.2151 386.092 36.6729 386.426 36.209C386.763 35.7452 387.225 35.3831 387.812 35.1228C388.4 34.8626 389.067 34.7324 389.815 34.7324C390.575 34.7324 391.24 34.8626 391.807 35.1228C392.377 35.3831 392.821 35.7452 393.138 36.209C393.455 36.6729 393.619 37.2101 393.629 37.8208H391.552Z" fill="#29ABE2"/>
<path d="M395.227 34.8726H397.9L400.723 41.76H400.843L403.666 34.8726H406.339V45.1237H404.236V38.4514H404.151L401.499 45.0736H400.067L397.414 38.4264H397.329V45.1237H395.227V34.8726Z" fill="#29ABE2"/>
</g>
<defs>
<filter id="filter0_d_69360_4712" x="0" y="0" width="436" height="88" filterUnits="userSpaceOnUse" color-interpolation-filters="sRGB">
<feFlood flood-opacity="0" result="BackgroundImageFix"/>
<feColorMatrix in="SourceAlpha" type="matrix" values="0 0 0 0 0 0 0 0 0 0 0 0 0 0 0 0 0 0 127 0" result="hardAlpha"/>
<feOffset dy="4"/>
<feGaussianBlur stdDeviation="2"/>
<feComposite in2="hardAlpha" operator="out"/>
<feColorMatrix type="matrix" values="0 0 0 0 0 0 0 0 0 0 0 0 0 0 0 0 0 0 0.1 0"/>
<feBlend mode="normal" in2="BackgroundImageFix" result="effect1_dropShadow_69360_4712"/>
<feBlend mode="normal" in="SourceGraphic" in2="effect1_dropShadow_69360_4712" result="shape"/>
</filter>
</defs>
</svg>
