<svg width="33" height="33" viewBox="0 0 33 33" fill="none" xmlns="http://www.w3.org/2000/svg">
<mask id="mask0_70853_4962" style="mask-type:alpha" maskUnits="userSpaceOnUse" x="0" y="0" width="33" height="33">
<rect x="0.966003" y="0.5" width="32" height="32" fill="#D9D9D9"/>
</mask>
<g mask="url(#mask0_70853_4962)">
<path d="M16.9061 23.7C17.3261 23.7 17.6811 23.555 17.9711 23.265C18.2611 22.975 18.4061 22.62 18.4061 22.2C18.4061 21.78 18.2611 21.425 17.9711 21.135C17.6811 20.845 17.3261 20.7 16.9061 20.7C16.4861 20.7 16.1311 20.845 15.8411 21.135C15.5511 21.425 15.4061 21.78 15.4061 22.2C15.4061 22.62 15.5511 22.975 15.8411 23.265C16.1311 23.555 16.4861 23.7 16.9061 23.7ZM16.9661 28.5C15.3061 28.5 13.7461 28.185 12.2861 27.555C10.8261 26.925 9.55606 26.07 8.47606 24.99C7.39606 23.91 6.54106 22.64 5.91106 21.18C5.28106 19.72 4.96606 18.16 4.96606 16.5C4.96606 14.84 5.28106 13.28 5.91106 11.82C6.54106 10.36 7.39606 9.09 8.47606 8.01C9.55606 6.93 10.8261 6.075 12.2861 5.445C13.7461 4.815 15.3061 4.5 16.9661 4.5C18.6261 4.5 20.1861 4.815 21.6461 5.445C23.1061 6.075 24.3761 6.93 25.4561 8.01C26.5361 9.09 27.3911 10.36 28.0211 11.82C28.6511 13.28 28.9661 14.84 28.9661 16.5C28.9661 18.16 28.6511 19.72 28.0211 21.18C27.3911 22.64 26.5361 23.91 25.4561 24.99C24.3761 26.07 23.1061 26.925 21.6461 27.555C20.1861 28.185 18.6261 28.5 16.9661 28.5ZM16.9661 26.1C19.6461 26.1 21.9161 25.17 23.7761 23.31C25.6361 21.45 26.5661 19.18 26.5661 16.5C26.5661 13.82 25.6361 11.55 23.7761 9.69C21.9161 7.83 19.6461 6.9 16.9661 6.9C14.2861 6.9 12.0161 7.83 10.1561 9.69C8.29606 11.55 7.36606 13.82 7.36606 16.5C7.36606 19.18 8.29606 21.45 10.1561 23.31C12.0161 25.17 14.2861 26.1 16.9661 26.1ZM17.0861 11.34C17.5861 11.34 18.0211 11.5 18.3911 11.82C18.7611 12.14 18.9461 12.54 18.9461 13.02C18.9461 13.46 18.8111 13.85 18.5411 14.19C18.2711 14.53 17.9661 14.85 17.6261 15.15C17.1661 15.55 16.7611 15.99 16.4111 16.47C16.0611 16.95 15.8861 17.49 15.8861 18.09C15.8861 18.37 15.9911 18.605 16.2011 18.795C16.4111 18.985 16.6561 19.08 16.9361 19.08C17.2361 19.08 17.4911 18.98 17.7011 18.78C17.9111 18.58 18.0461 18.33 18.1061 18.03C18.1861 17.61 18.3661 17.235 18.6461 16.905C18.9261 16.575 19.2261 16.26 19.5461 15.96C20.0061 15.52 20.4011 15.04 20.7311 14.52C21.0611 14 21.2261 13.42 21.2261 12.78C21.2261 11.76 20.8111 10.925 19.9811 10.275C19.1511 9.625 18.1861 9.3 17.0861 9.3C16.3261 9.3 15.6011 9.46 14.9111 9.78C14.2211 10.1 13.6961 10.59 13.3361 11.25C13.1961 11.49 13.1511 11.745 13.2011 12.015C13.2511 12.285 13.3861 12.49 13.6061 12.63C13.8861 12.79 14.1761 12.84 14.4761 12.78C14.7761 12.72 15.0261 12.55 15.2261 12.27C15.4461 11.97 15.7211 11.74 16.0511 11.58C16.3811 11.42 16.7261 11.34 17.0861 11.34Z" fill="#A8A8A8"/>
</g>
</svg>
