<svg width="33" height="33" viewBox="0 0 33 33" fill="none" xmlns="http://www.w3.org/2000/svg">
<mask id="mask0_70853_4959" style="mask-type:alpha" maskUnits="userSpaceOnUse" x="0" y="0" width="33" height="33">
<rect x="0.966003" y="0.5" width="32" height="32" fill="#D9D9D9"/>
</mask>
<g mask="url(#mask0_70853_4959)">
<path d="M16.9161 22.5C17.2661 22.5 17.5619 22.3792 17.8036 22.1375C18.0452 21.8958 18.1661 21.6 18.1661 21.25C18.1661 20.9 18.0452 20.6042 17.8036 20.3625C17.5619 20.1208 17.2661 20 16.9161 20C16.5661 20 16.2702 20.1208 16.0286 20.3625C15.7869 20.6042 15.6661 20.9 15.6661 21.25C15.6661 21.6 15.7869 21.8958 16.0286 22.1375C16.2702 22.3792 16.5661 22.5 16.9161 22.5ZM16.9661 26.5C15.5827 26.5 14.2827 26.2375 13.0661 25.7125C11.8494 25.1875 10.7911 24.475 9.89106 23.575C8.99106 22.675 8.27856 21.6167 7.75356 20.4C7.22856 19.1833 6.96606 17.8833 6.96606 16.5C6.96606 15.1167 7.22856 13.8167 7.75356 12.6C8.27856 11.3833 8.99106 10.325 9.89106 9.425C10.7911 8.525 11.8494 7.8125 13.0661 7.2875C14.2827 6.7625 15.5827 6.5 16.9661 6.5C18.3494 6.5 19.6494 6.7625 20.8661 7.2875C22.0827 7.8125 23.1411 8.525 24.0411 9.425C24.9411 10.325 25.6536 11.3833 26.1786 12.6C26.7036 13.8167 26.9661 15.1167 26.9661 16.5C26.9661 17.8833 26.7036 19.1833 26.1786 20.4C25.6536 21.6167 24.9411 22.675 24.0411 23.575C23.1411 24.475 22.0827 25.1875 20.8661 25.7125C19.6494 26.2375 18.3494 26.5 16.9661 26.5ZM16.9661 24.5C19.1994 24.5 21.0911 23.725 22.6411 22.175C24.1911 20.625 24.9661 18.7333 24.9661 16.5C24.9661 14.2667 24.1911 12.375 22.6411 10.825C21.0911 9.275 19.1994 8.5 16.9661 8.5C14.7327 8.5 12.8411 9.275 11.2911 10.825C9.74106 12.375 8.96606 14.2667 8.96606 16.5C8.96606 18.7333 9.74106 20.625 11.2911 22.175C12.8411 23.725 14.7327 24.5 16.9661 24.5ZM17.0661 12.2C17.4827 12.2 17.8452 12.3333 18.1536 12.6C18.4619 12.8667 18.6161 13.2 18.6161 13.6C18.6161 13.9667 18.5036 14.2917 18.2786 14.575C18.0536 14.8583 17.7994 15.125 17.5161 15.375C17.1327 15.7083 16.7952 16.075 16.5036 16.475C16.2119 16.875 16.0661 17.325 16.0661 17.825C16.0661 18.0583 16.1536 18.2542 16.3286 18.4125C16.5036 18.5708 16.7077 18.65 16.9411 18.65C17.1911 18.65 17.4036 18.5667 17.5786 18.4C17.7536 18.2333 17.8661 18.025 17.9161 17.775C17.9827 17.425 18.1327 17.1125 18.3661 16.8375C18.5994 16.5625 18.8494 16.3 19.1161 16.05C19.4994 15.6833 19.8286 15.2833 20.1036 14.85C20.3786 14.4167 20.5161 13.9333 20.5161 13.4C20.5161 12.55 20.1702 11.8542 19.4786 11.3125C18.7869 10.7708 17.9827 10.5 17.0661 10.5C16.4327 10.5 15.8286 10.6333 15.2536 10.9C14.6786 11.1667 14.2411 11.575 13.9411 12.125C13.8244 12.325 13.7869 12.5375 13.8286 12.7625C13.8702 12.9875 13.9827 13.1583 14.1661 13.275C14.3994 13.4083 14.6411 13.45 14.8911 13.4C15.1411 13.35 15.3494 13.2083 15.5161 12.975C15.6994 12.725 15.9286 12.5333 16.2036 12.4C16.4786 12.2667 16.7661 12.2 17.0661 12.2Z" fill="#A8A8A8"/>
</g>
</svg>
