<svg width="31" height="31" viewBox="0 0 31 31" fill="none" xmlns="http://www.w3.org/2000/svg">
<mask id="mask0_69323_5265" style="mask-type:alpha" maskUnits="userSpaceOnUse" x="0" y="0" width="31" height="31">
<rect x="0.737976" y="0.5" width="30" height="30" fill="#D9D9D9"/>
</mask>
<g mask="url(#mask0_69323_5265)">
<path d="M15.738 23C14.5713 23 13.4567 23.1823 12.3942 23.5469C11.3317 23.9115 10.363 24.4583 9.48798 25.1875V25.5H21.988V25.1875C21.113 24.4583 20.1442 23.9115 19.0817 23.5469C18.0192 23.1823 16.9046 23 15.738 23ZM6.98798 24.0625C8.11298 22.9583 9.42027 22.0885 10.9099 21.4531C12.3994 20.8177 14.0088 20.5 15.738 20.5C17.4671 20.5 19.0765 20.8177 20.5661 21.4531C22.0557 22.0885 23.363 22.9583 24.488 24.0625V8H6.98798V24.0625ZM15.738 18C14.5296 18 13.4984 17.5729 12.6442 16.7188C11.7901 15.8646 11.363 14.8333 11.363 13.625C11.363 12.4167 11.7901 11.3854 12.6442 10.5312C13.4984 9.67708 14.5296 9.25 15.738 9.25C16.9463 9.25 17.9776 9.67708 18.8317 10.5312C19.6859 11.3854 20.113 12.4167 20.113 13.625C20.113 14.8333 19.6859 15.8646 18.8317 16.7188C17.9776 17.5729 16.9463 18 15.738 18ZM15.738 15.5C16.2588 15.5 16.7015 15.3177 17.0661 14.9531C17.4307 14.5885 17.613 14.1458 17.613 13.625C17.613 13.1042 17.4307 12.6615 17.0661 12.2969C16.7015 11.9323 16.2588 11.75 15.738 11.75C15.2171 11.75 14.7744 11.9323 14.4099 12.2969C14.0453 12.6615 13.863 13.1042 13.863 13.625C13.863 14.1458 14.0453 14.5885 14.4099 14.9531C14.7744 15.3177 15.2171 15.5 15.738 15.5ZM6.98798 28C6.30048 28 5.71193 27.7552 5.22235 27.2656C4.73277 26.776 4.48798 26.1875 4.48798 25.5V8C4.48798 7.3125 4.73277 6.72396 5.22235 6.23438C5.71193 5.74479 6.30048 5.5 6.98798 5.5H8.23798V3H10.738V5.5H20.738V3H23.238V5.5H24.488C25.1755 5.5 25.764 5.74479 26.2536 6.23438C26.7432 6.72396 26.988 7.3125 26.988 8V25.5C26.988 26.1875 26.7432 26.776 26.2536 27.2656C25.764 27.7552 25.1755 28 24.488 28H6.98798Z" fill="white"/>
</g>
</svg>
