<svg width="31" height="31" viewBox="0 0 31 31" fill="none" xmlns="http://www.w3.org/2000/svg">
<mask id="mask0_69323_5260" style="mask-type:alpha" maskUnits="userSpaceOnUse" x="0" y="0" width="31" height="31">
<rect x="0.734802" y="0.5" width="30" height="30" fill="#D9D9D9"/>
</mask>
<g mask="url(#mask0_69323_5260)">
<path d="M5.36133 27.7024C4.69059 27.7024 4.11641 27.4635 3.63877 26.9859C3.16112 26.5083 2.9223 25.9341 2.9223 25.2633V8.19017C2.9223 7.51944 3.16112 6.94525 3.63877 6.46761C4.11641 5.98996 4.69059 5.75114 5.36133 5.75114H16.2455L13.8064 8.19017H5.36133V25.2633H22.4345V16.7877L24.8735 14.3487V25.2633C24.8735 25.9341 24.6347 26.5083 24.1571 26.9859C23.6794 27.4635 23.1052 27.7024 22.4345 27.7024H5.36133ZM18.9894 6.45236L20.7272 8.15968L12.6784 16.2085V17.9463H14.3857L22.465 9.867L24.2028 11.5743L16.1235 19.6536C15.8999 19.8772 15.6408 20.055 15.3461 20.1871C15.0514 20.3192 14.7414 20.3853 14.4162 20.3853H11.4589C11.1134 20.3853 10.8237 20.2684 10.59 20.0347C10.3562 19.8009 10.2394 19.5113 10.2394 19.1658V16.2085C10.2394 15.8833 10.3004 15.5733 10.4223 15.2786C10.5443 14.9839 10.717 14.7247 10.9406 14.5011L18.9894 6.45236ZM24.2028 11.5743L18.9894 6.45236L22.0382 3.40358C22.526 2.91578 23.1103 2.67188 23.7912 2.67188C24.4721 2.67188 25.0463 2.91578 25.5138 3.40358L27.2211 5.14139C27.6886 5.60887 27.9223 6.17797 27.9223 6.8487C27.9223 7.51944 27.6886 8.08854 27.2211 8.55602L24.2028 11.5743Z" fill="white"/>
</g>
</svg>
