<svg width="31" height="25" viewBox="0 0 31 25" fill="none" xmlns="http://www.w3.org/2000/svg">
<path d="M23.6893 2.27273L23.6893 22.7271C23.6887 23.3296 23.449 23.9074 23.0229 24.3334C22.5969 24.7595 22.0191 24.9992 21.4166 24.9998L16.8712 24.9998C16.2686 24.9992 15.6909 24.7595 15.2648 24.3334C14.8387 23.9074 14.5991 23.3296 14.5985 22.7271L14.5985 2.27273C14.5991 1.67015 14.8387 1.09243 15.2648 0.666347C15.6909 0.240262 16.2686 0.000623034 16.8712 2.02854e-05L21.4166 2.00867e-05C22.0191 0.000622783 22.5969 0.240262 23.0229 0.666347C23.449 1.09243 23.6887 1.67015 23.6893 2.27273ZM16.8712 22.7271L21.4166 22.7271L21.4166 2.27273L16.8712 2.27273L16.8712 22.7271ZM16.8712 2.27273L16.8712 22.7271C16.8706 23.3296 16.6309 23.9073 16.2048 24.3334C15.7788 24.7595 15.201 24.9991 14.5985 24.9997L10.053 24.9997C9.45047 24.9991 8.87275 24.7595 8.44667 24.3334C8.02058 23.9073 7.78095 23.3296 7.78034 22.727L7.78034 2.2727C7.78095 1.67013 8.02058 1.09241 8.44667 0.666322C8.87275 0.240238 9.45047 0.000602351 10.053 -3.97372e-07L14.5985 -5.96058e-07C15.201 0.0006021 15.7788 0.240238 16.2048 0.666322C16.6309 1.09241 16.8706 1.67015 16.8712 2.27273ZM10.053 22.727L14.5985 22.7271L14.5985 2.27273L10.053 2.2727L10.053 22.727ZM10.053 2.2727L10.053 22.727C10.0524 23.3296 9.81281 23.9073 9.38672 24.3334C8.96064 24.7595 8.38292 24.9991 7.78034 24.9997L3.23494 24.9997C2.63236 24.9991 2.05464 24.7595 1.62856 24.3334C1.20247 23.9073 0.962836 23.3296 0.962234 22.727L0.962234 2.2727C0.962835 1.67013 1.20247 1.09241 1.62856 0.666323C2.05464 0.240238 2.63236 0.000602649 3.23494 -9.9343e-08L7.78034 -2.98029e-07C8.38292 0.000602398 8.96064 0.240238 9.38672 0.666322C9.81281 1.09241 10.0524 1.67013 10.053 2.2727ZM3.23494 22.727L7.78034 22.727L7.78034 2.2727L3.23494 2.2727L3.23494 22.727Z" fill="white"/>
<path d="M30.5074 2.27298L30.5074 22.7273C30.5068 23.3299 30.2671 23.9076 29.8411 24.3337C29.415 24.7598 28.8372 24.9994 28.2347 25L23.6893 25C23.0867 24.9994 22.509 24.7598 22.0829 24.3337C21.6568 23.9076 21.4172 23.3296 21.4166 22.7271L21.4166 2.27273C21.4172 1.67015 21.6568 1.09268 22.0829 0.666598C22.509 0.240514 23.0867 0.000876413 23.6893 0.000273665L28.2347 0.000273466C28.8372 0.000876162 29.415 0.240514 29.8411 0.666598C30.2671 1.09268 30.5068 1.6704 30.5074 2.27298ZM23.6893 22.7271L28.2347 22.7273L28.2347 2.27298L23.6893 2.27273L23.6893 22.7271Z" fill="white"/>
</svg>
