<svg width="31" height="31" viewBox="0 0 31 31" fill="none" xmlns="http://www.w3.org/2000/svg">
<path d="M25.9621 3H5.50753H5.2348C4.13023 3 3.2348 3.89573 3.2348 5.0003C3.2348 5.18009 3.2348 5.30746 3.2348 5.33997V25.7945V26C3.2348 27.1046 4.13053 28 5.2351 28C5.37858 28 5.47882 28 5.50752 28H25.9621C25.9908 28 26.091 28 26.2345 28C27.3391 28 28.2348 27.1041 28.2348 25.9995C28.2348 25.8927 28.2348 25.8188 28.2348 25.7945V5.33994C28.2348 5.30744 28.2348 5.18008 28.2348 5.0003C28.2348 3.89573 27.3391 3 26.2345 3C26.091 3 25.9908 3 25.9621 3ZM18.0075 25.7945H5.50753V16.7036H18.0075V25.7945ZM18.0075 14.4309H5.50753V5.33997L18.0075 5.33994V14.4309ZM25.9621 25.7945H20.2803V5.33997H25.9621V25.7945Z" fill="white"/>
</svg>
