<svg width="33" height="33" viewBox="0 0 33 33" fill="none" xmlns="http://www.w3.org/2000/svg">
<rect x="0.966003" y="0.5" width="32" height="32" rx="16" fill="#EEEEEE"/>
<path d="M9.67358 15.1667H27.1642C27.9006 15.1667 28.4975 15.7637 28.4975 16.5001C28.4975 17.2364 27.9006 17.8334 27.1642 17.8334H9.67358L15.8829 24.0427C16.4035 24.5634 16.4035 25.4074 15.8829 25.9281C15.3623 26.4487 14.5182 26.4487 13.9976 25.9281L5.98379 17.9143C5.20274 17.1332 5.20275 15.8669 5.98379 15.0858L13.9976 7.07206C14.5182 6.55144 15.3623 6.55144 15.8829 7.07206C16.4035 7.59268 16.4035 8.43677 15.8829 8.95739L9.67358 15.1667Z" fill="#29ABE2"/>
</svg>
