<svg width="23" height="16" viewBox="0 0 23 16" fill="none" xmlns="http://www.w3.org/2000/svg">
<path d="M11.7381 12.5C12.9881 12.5 14.0506 12.0625 14.9256 11.1875C15.8006 10.3125 16.2381 9.25 16.2381 8C16.2381 6.75 15.8006 5.6875 14.9256 4.8125C14.0506 3.9375 12.9881 3.5 11.7381 3.5C10.4881 3.5 9.42559 3.9375 8.55059 4.8125C7.67559 5.6875 7.23809 6.75 7.23809 8C7.23809 9.25 7.67559 10.3125 8.55059 11.1875C9.42559 12.0625 10.4881 12.5 11.7381 12.5ZM11.7381 10.7C10.9881 10.7 10.3506 10.4375 9.82559 9.9125C9.30059 9.3875 9.03809 8.75 9.03809 8C9.03809 7.25 9.30059 6.6125 9.82559 6.0875C10.3506 5.5625 10.9881 5.3 11.7381 5.3C12.4881 5.3 13.1256 5.5625 13.6506 6.0875C14.1756 6.6125 14.4381 7.25 14.4381 8C14.4381 8.75 14.1756 9.3875 13.6506 9.9125C13.1256 10.4375 12.4881 10.7 11.7381 10.7ZM11.7381 15.5C9.42142 15.5 7.30475 14.8875 5.38809 13.6625C3.47142 12.4375 2.02142 10.7833 1.03809 8.7C0.988086 8.61667 0.954753 8.5125 0.938086 8.3875C0.921419 8.2625 0.913086 8.13333 0.913086 8C0.913086 7.86667 0.921419 7.7375 0.938086 7.6125C0.954753 7.4875 0.988086 7.38333 1.03809 7.3C2.02142 5.21667 3.47142 3.5625 5.38809 2.3375C7.30475 1.1125 9.42142 0.5 11.7381 0.5C14.0548 0.5 16.1714 1.1125 18.0881 2.3375C20.0048 3.5625 21.4548 5.21667 22.4381 7.3C22.4881 7.38333 22.5214 7.4875 22.5381 7.6125C22.5548 7.7375 22.5631 7.86667 22.5631 8C22.5631 8.13333 22.5548 8.2625 22.5381 8.3875C22.5214 8.5125 22.4881 8.61667 22.4381 8.7C21.4548 10.7833 20.0048 12.4375 18.0881 13.6625C16.1714 14.8875 14.0548 15.5 11.7381 15.5ZM11.7381 13.5C13.6214 13.5 15.3506 13.0042 16.9256 12.0125C18.5006 11.0208 19.7048 9.68333 20.5381 8C19.7048 6.31667 18.5006 4.97917 16.9256 3.9875C15.3506 2.99583 13.6214 2.5 11.7381 2.5C9.85475 2.5 8.12559 2.99583 6.55059 3.9875C4.97559 4.97917 3.77142 6.31667 2.93809 8C3.77142 9.68333 4.97559 11.0208 6.55059 12.0125C8.12559 13.0042 9.85475 13.5 11.7381 13.5Z" fill="#A8A8A8"/>
</svg>
