<svg width="25" height="24" viewBox="0 0 25 24" fill="none" xmlns="http://www.w3.org/2000/svg">
<mask id="mask0_69960_5329" style="mask-type:alpha" maskUnits="userSpaceOnUse" x="0" y="0" width="25" height="24">
<rect x="0.738037" width="24" height="24" fill="#D9D9D9"/>
</mask>
<g mask="url(#mask0_69960_5329)">
<path d="M16.8381 13.3001L15.3881 11.8501C15.5381 11.0668 15.3131 10.3334 14.7131 9.6501C14.1131 8.96676 13.3381 8.7001 12.3881 8.8501L10.9381 7.4001C11.2214 7.26676 11.5089 7.16676 11.8006 7.1001C12.0923 7.03343 12.4048 7.0001 12.7381 7.0001C13.9881 7.0001 15.0506 7.4376 15.9256 8.3126C16.8006 9.1876 17.2381 10.2501 17.2381 11.5001C17.2381 11.8334 17.2048 12.1459 17.1381 12.4376C17.0714 12.7293 16.9714 13.0168 16.8381 13.3001ZM20.0381 16.4501L18.5881 15.0501C19.2214 14.5668 19.7839 14.0376 20.2756 13.4626C20.7673 12.8876 21.1881 12.2334 21.5381 11.5001C20.7048 9.81676 19.5089 8.47926 17.9506 7.4876C16.3923 6.49593 14.6548 6.0001 12.7381 6.0001C12.2548 6.0001 11.7798 6.03343 11.3131 6.1001C10.8464 6.16676 10.3881 6.26676 9.93809 6.4001L8.38809 4.8501C9.07142 4.56676 9.77142 4.35426 10.4881 4.2126C11.2048 4.07093 11.9548 4.0001 12.7381 4.0001C15.1214 4.0001 17.2631 4.62926 19.1631 5.8876C21.0631 7.14593 22.4881 8.78343 23.4381 10.8001C23.4881 10.8834 23.5214 10.9876 23.5381 11.1126C23.5548 11.2376 23.5631 11.3668 23.5631 11.5001C23.5631 11.6334 23.5506 11.7626 23.5256 11.8876C23.5006 12.0126 23.4714 12.1168 23.4381 12.2001C23.0548 13.0501 22.5756 13.8334 22.0006 14.5501C21.4256 15.2668 20.7714 15.9001 20.0381 16.4501ZM19.8381 21.9001L16.3381 18.4501C15.7548 18.6334 15.1673 18.7709 14.5756 18.8626C13.9839 18.9543 13.3714 19.0001 12.7381 19.0001C10.3548 19.0001 8.21309 18.3709 6.31309 17.1126C4.41309 15.8543 2.98809 14.2168 2.03809 12.2001C1.98809 12.1168 1.95475 12.0126 1.93809 11.8876C1.92142 11.7626 1.91309 11.6334 1.91309 11.5001C1.91309 11.3668 1.92142 11.2418 1.93809 11.1251C1.95475 11.0084 1.98809 10.9084 2.03809 10.8251C2.38809 10.0751 2.80475 9.38343 3.28809 8.7501C3.77142 8.11676 4.30475 7.53343 4.88809 7.0001L2.81309 4.9001C2.62975 4.71676 2.53809 4.4876 2.53809 4.2126C2.53809 3.9376 2.63809 3.7001 2.83809 3.5001C3.02142 3.31676 3.25475 3.2251 3.53809 3.2251C3.82142 3.2251 4.05475 3.31676 4.23809 3.5001L21.2381 20.5001C21.4214 20.6834 21.5173 20.9126 21.5256 21.1876C21.5339 21.4626 21.4381 21.7001 21.2381 21.9001C21.0548 22.0834 20.8214 22.1751 20.5381 22.1751C20.2548 22.1751 20.0214 22.0834 19.8381 21.9001ZM6.28809 8.4001C5.80475 8.83343 5.36309 9.30843 4.96309 9.8251C4.56309 10.3418 4.22142 10.9001 3.93809 11.5001C4.77142 13.1834 5.96725 14.5209 7.52559 15.5126C9.08392 16.5043 10.8214 17.0001 12.7381 17.0001C13.0714 17.0001 13.3964 16.9793 13.7131 16.9376C14.0298 16.8959 14.3548 16.8501 14.6881 16.8001L13.7881 15.8501C13.6048 15.9001 13.4298 15.9376 13.2631 15.9626C13.0964 15.9876 12.9214 16.0001 12.7381 16.0001C11.4881 16.0001 10.4256 15.5626 9.55059 14.6876C8.67559 13.8126 8.23809 12.7501 8.23809 11.5001C8.23809 11.3168 8.25059 11.1418 8.27559 10.9751C8.30059 10.8084 8.33809 10.6334 8.38809 10.4501L6.28809 8.4001Z" fill="#A8A8A8"/>
</g>
</svg>
