<svg width="17" height="17" viewBox="0 0 17 17" fill="none" xmlns="http://www.w3.org/2000/svg">
<path d="M8.73804 8.5C7.63804 8.5 6.69637 8.10833 5.91304 7.325C5.1297 6.54167 4.73804 5.6 4.73804 4.5C4.73804 3.4 5.1297 2.45833 5.91304 1.675C6.69637 0.891667 7.63804 0.5 8.73804 0.5C9.83804 0.5 10.7797 0.891667 11.563 1.675C12.3464 2.45833 12.738 3.4 12.738 4.5C12.738 5.6 12.3464 6.54167 11.563 7.325C10.7797 8.10833 9.83804 8.5 8.73804 8.5ZM14.738 16.5H2.73804C2.18804 16.5 1.7172 16.3042 1.32554 15.9125C0.93387 15.5208 0.738037 15.05 0.738037 14.5V13.7C0.738037 13.1333 0.88387 12.6125 1.17554 12.1375C1.4672 11.6625 1.8547 11.3 2.33804 11.05C3.37137 10.5333 4.42137 10.1458 5.48804 9.8875C6.5547 9.62917 7.63804 9.5 8.73804 9.5C9.83804 9.5 10.9214 9.62917 11.988 9.8875C13.0547 10.1458 14.1047 10.5333 15.138 11.05C15.6214 11.3 16.0089 11.6625 16.3005 12.1375C16.5922 12.6125 16.738 13.1333 16.738 13.7V14.5C16.738 15.05 16.5422 15.5208 16.1505 15.9125C15.7589 16.3042 15.288 16.5 14.738 16.5ZM2.73804 14.5H14.738V13.7C14.738 13.5167 14.6922 13.35 14.6005 13.2C14.5089 13.05 14.388 12.9333 14.238 12.85C13.338 12.4 12.4297 12.0625 11.513 11.8375C10.5964 11.6125 9.67137 11.5 8.73804 11.5C7.8047 11.5 6.8797 11.6125 5.96304 11.8375C5.04637 12.0625 4.13804 12.4 3.23804 12.85C3.08804 12.9333 2.9672 13.05 2.87554 13.2C2.78387 13.35 2.73804 13.5167 2.73804 13.7V14.5ZM8.73804 6.5C9.28804 6.5 9.75887 6.30417 10.1505 5.9125C10.5422 5.52083 10.738 5.05 10.738 4.5C10.738 3.95 10.5422 3.47917 10.1505 3.0875C9.75887 2.69583 9.28804 2.5 8.73804 2.5C8.18804 2.5 7.7172 2.69583 7.32554 3.0875C6.93387 3.47917 6.73804 3.95 6.73804 4.5C6.73804 5.05 6.93387 5.52083 7.32554 5.9125C7.7172 6.30417 8.18804 6.5 8.73804 6.5Z" fill="#A8A8A8"/>
</svg>
