<svg width="40" height="40" viewBox="0 0 40 40" fill="none" xmlns="http://www.w3.org/2000/svg">
<g clip-path="url(#clip0_10119_3730)">
<path d="M39.91 1.715C40.0009 1.48784 40.0232 1.23899 39.974 0.999302C39.9248 0.759611 39.8064 0.539621 39.6334 0.366605C39.4604 0.193589 39.2404 0.0751553 39.0007 0.0259867C38.761 -0.023182 38.5121 -0.000923203 38.285 0.0900035L1.91748 14.6375C1.5972 14.7657 1.3185 14.9798 1.11206 15.2562C0.905608 15.5326 0.779416 15.8605 0.747367 16.204C0.715318 16.5475 0.778656 16.8932 0.930409 17.203C1.08216 17.5128 1.31645 17.7748 1.60748 17.96L14.095 25.905L17.9225 31.92C18.1032 32.1929 18.3839 32.3841 18.7041 32.4523C19.0242 32.5205 19.3584 32.4605 19.6347 32.285C19.9111 32.1095 20.1076 31.8325 20.1819 31.5137C20.2563 31.1949 20.2026 30.8597 20.0325 30.58L16.5925 25.175L35.3275 6.44L30.59 18.285C30.5249 18.4381 30.491 18.6026 30.4903 18.7689C30.4896 18.9353 30.5222 19.1001 30.586 19.2537C30.6498 19.4073 30.7436 19.5466 30.862 19.6635C30.9803 19.7804 31.1208 19.8725 31.2752 19.9344C31.4296 19.9963 31.5948 20.0267 31.7611 20.0239C31.9274 20.0212 32.0915 19.9852 32.2438 19.9182C32.396 19.8512 32.5334 19.7545 32.6478 19.6338C32.7622 19.513 32.8513 19.3706 32.91 19.215L39.91 1.715ZM33.56 4.6725L14.825 23.4075L3.97748 16.505L33.56 4.6725Z" fill="white"/>
<path d="M40 31.25C40 33.5706 39.0781 35.7962 37.4372 37.4372C35.7962 39.0781 33.5706 40 31.25 40C28.9294 40 26.7038 39.0781 25.0628 37.4372C23.4219 35.7962 22.5 33.5706 22.5 31.25C22.5 28.9294 23.4219 26.7038 25.0628 25.0628C26.7038 23.4219 28.9294 22.5 31.25 22.5C33.5706 22.5 35.7962 23.4219 37.4372 25.0628C39.0781 26.7038 40 28.9294 40 31.25ZM35.0175 27.0525C34.8767 26.9681 34.7206 26.9123 34.5582 26.8882C34.3957 26.8641 34.2302 26.8723 34.0709 26.9122C33.9117 26.9522 33.7618 27.0231 33.63 27.1209C33.4981 27.2188 33.3869 27.3416 33.3025 27.4825L30.3775 32.3575L29.01 30.99C28.7753 30.7553 28.4569 30.6234 28.125 30.6234C27.7931 30.6234 27.4747 30.7553 27.24 30.99C27.0053 31.2247 26.8734 31.5431 26.8734 31.875C26.8734 32.2069 27.0053 32.5253 27.24 32.76L29.175 34.6925C29.3764 34.8943 29.6212 35.0475 29.8907 35.1405C30.1602 35.2334 30.4474 35.2637 30.7304 35.229C31.0134 35.1943 31.2847 35.0955 31.5238 34.9402C31.7628 34.7848 31.9633 34.577 32.11 34.3325L35.4475 28.7675C35.5319 28.6267 35.5877 28.4706 35.6118 28.3082C35.6359 28.1457 35.6277 27.9802 35.5878 27.8209C35.5478 27.6617 35.4769 27.5118 35.3791 27.38C35.2812 27.2481 35.1584 27.1369 35.0175 27.0525Z" fill="white"/>
</g>
<defs>
<clipPath id="clip0_10119_3730">
<rect width="40" height="40" fill="white"/>
</clipPath>
</defs>
</svg>
